<svg xmlns="http://www.w3.org/2000/svg" xml:space="preserve" id="Chain168587773_svg__Layer_1" x="0px" y="0px" style="enable-background:new 0 0 500 500;" version="1.1" viewBox="0 0 500 500">
    <defs id="Chain168587773_svg__defs843"/>
    <g id="Chain168587773_svg__g188" fill="#000000" stroke="none" style="fill:#574b90;fill-opacity:1" transform="matrix(0.0479914,0,0,-0.0479914,96.689012,442.04675)">
        <path id="Chain168587773_svg__path182" d="M 595,7985 C 345,7938 149,7776 53,7538 -1,7406 1,7461 0,5567 V 3809 l 482,3 483,3 43,23 c 94,50 127,93 221,286 258,527 603,852 1163,1096 81,35 107,52 147,96 92,100 91,96 91,620 v 454 l -22,-5 c -13,-2 -77,-16 -143,-31 -474,-103 -931,-325 -1315,-637 l -85,-69 -5,1053 -5,1054 -24,45 c -37,70 -61,98 -115,134 -93,63 -182,77 -321,51 z" style="fill:#574b90;fill-opacity:1"/>
        <path id="Chain168587773_svg__path184" d="m 3712,5918 3,-473 28,-54 c 47,-88 101,-132 229,-186 294,-122 518,-274 738,-502 181,-186 284,-334 396,-568 224,-468 269,-968 134,-1481 C 5084,2064 4668,1559 4115,1290 3305,895 2336,1046 1688,1669 c -221,211 -371,436 -518,773 -47,109 -103,172 -188,211 -46,21 -58,22 -514,25 -258,1 -468,0 -468,-2 0,-3 11,-59 25,-125 C 278,1355 1200,395 2380,100 2684,24 2841,6 3175,6 c 289,0 396,10 645,61 630,127 1226,456 1674,924 701,731 1019,1760 851,2755 -127,752 -500,1413 -1080,1913 -388,334 -852,571 -1355,690 -69,16 -142,32 -163,36 l -38,6 z" style="fill:#000000;fill-opacity:1"/>
        <path id="Chain168587773_svg__path186" d="m 3040,4490 c -455,-56 -826,-319 -1020,-725 -138,-290 -158,-641 -54,-953 52,-158 151,-327 263,-447 254,-274 577,-417 941,-416 342,0 635,115 875,343 322,304 463,743 380,1176 -97,501 -508,910 -1013,1006 -102,19 -279,27 -372,16 z" style="fill:#574b90;fill-opacity:1"/>
    </g>
</svg>
