<svg xmlns="http://www.w3.org/2000/svg" xml:space="preserve" id="Chain1891_svg__Layer_1" x="0px" y="0px" style="enable-background:new 0 0 500 500;" version="1.1" viewBox="0 0 500 500">
    <defs id="Chain1891_svg__defs20">
        <linearGradient id="Chain1891_svg__paint0_linear_479_2389" x1="14.1197" x2="27.3654" y1="19.0317" y2="30.8557" gradientTransform="matrix(10.793454,0,0,10.793454,7.2145895,-0.3333695)" gradientUnits="userSpaceOnUse">
            <stop id="Chain1891_svg__stop39" offset="0.12" stop-color="#6978FF"/>
            <stop id="Chain1891_svg__stop41" offset="0.19" stop-color="#5F87FF"/>
            <stop id="Chain1891_svg__stop43" offset="0.35" stop-color="#4DA4FF"/>
            <stop id="Chain1891_svg__stop45" offset="0.51" stop-color="#40B9FF"/>
            <stop id="Chain1891_svg__stop47" offset="0.66" stop-color="#38C6FF"/>
            <stop id="Chain1891_svg__stop49" offset="0.81" stop-color="#36CBFF"/>
            <stop id="Chain1891_svg__stop51" offset="1" stop-color="#67FFFC"/>
        </linearGradient>
        <linearGradient id="Chain1891_svg__paint1_linear_479_2389" x1="11.5384" x2="50.9618" y1="42.839298" y2="6.2297602" gradientTransform="matrix(10.793454,0,0,10.793454,7.2145895,-0.3333695)" gradientUnits="userSpaceOnUse">
            <stop id="Chain1891_svg__stop54" offset="0.39" stop-color="#6978FF"/>
            <stop id="Chain1891_svg__stop56" offset="0.44" stop-color="#6184FF"/>
            <stop id="Chain1891_svg__stop58" offset="0.65" stop-color="#49AAFF"/>
            <stop id="Chain1891_svg__stop60" offset="0.81" stop-color="#3BC2FF"/>
            <stop id="Chain1891_svg__stop62" offset="0.91" stop-color="#36CBFF"/>
            <stop id="Chain1891_svg__stop64" offset="1" stop-color="#67FFFC"/>
        </linearGradient>
        <linearGradient id="Chain1891_svg__paint2_linear_479_2389" x1="42.680801" x2="12.2821" y1="20.3204" y2="45.814201" gradientTransform="matrix(10.793454,0,0,10.793454,7.2145895,-0.3333695)" gradientUnits="userSpaceOnUse">
            <stop id="Chain1891_svg__stop67" offset="0.05" stop-color="#6978FF"/>
            <stop id="Chain1891_svg__stop69" offset="0.12" stop-color="#5F87FF"/>
            <stop id="Chain1891_svg__stop71" offset="0.3" stop-color="#4DA4FF"/>
            <stop id="Chain1891_svg__stop73" offset="0.48" stop-color="#40B9FF"/>
            <stop id="Chain1891_svg__stop75" offset="0.65" stop-color="#38C6FF"/>
            <stop id="Chain1891_svg__stop77" offset="0.81" stop-color="#36CBFF"/>
            <stop id="Chain1891_svg__stop79" offset="1" stop-color="#67FFFC"/>
        </linearGradient>
        <linearGradient id="Chain1891_svg__paint3_linear_479_2389" x1="20.18" x2="25.0019" y1="14.7045" y2="20.5126" gradientTransform="matrix(10.793454,0,0,10.793454,7.2145895,-0.3333695)" gradientUnits="userSpaceOnUse">
            <stop id="Chain1891_svg__stop82" offset="0.12" stop-color="#6978FF"/>
            <stop id="Chain1891_svg__stop84" offset="0.19" stop-color="#5F87FF"/>
            <stop id="Chain1891_svg__stop86" offset="0.35" stop-color="#4DA4FF"/>
            <stop id="Chain1891_svg__stop88" offset="0.51" stop-color="#40B9FF"/>
            <stop id="Chain1891_svg__stop90" offset="0.66" stop-color="#38C6FF"/>
            <stop id="Chain1891_svg__stop92" offset="0.81" stop-color="#36CBFF"/>
            <stop id="Chain1891_svg__stop94" offset="1" stop-color="#67FFFC"/>
        </linearGradient>
        <linearGradient id="Chain1891_svg__paint4_linear_479_2389" x1="4.17027" x2="23.1255" y1="36.3223" y2="16.178499" gradientTransform="matrix(10.793454,0,0,10.793454,7.2145895,-0.3333695)" gradientUnits="userSpaceOnUse">
            <stop id="Chain1891_svg__stop97" offset="0.31" stop-color="#6978FF"/>
            <stop id="Chain1891_svg__stop99" offset="0.36" stop-color="#5F87FF"/>
            <stop id="Chain1891_svg__stop101" offset="0.48" stop-color="#4DA4FF"/>
            <stop id="Chain1891_svg__stop103" offset="0.59" stop-color="#40B9FF"/>
            <stop id="Chain1891_svg__stop105" offset="0.7" stop-color="#38C6FF"/>
            <stop id="Chain1891_svg__stop107" offset="0.81" stop-color="#36CBFF"/>
            <stop id="Chain1891_svg__stop109" offset="1" stop-color="#67FFFC"/>
        </linearGradient>
        <linearGradient id="Chain1891_svg__paint5_linear_479_2389" x1="20.5944" x2="0.33115" y1="0.84867001" y2="21.8307" gradientTransform="matrix(10.793454,0,0,10.793454,7.2145895,-0.3333695)" gradientUnits="userSpaceOnUse">
            <stop id="Chain1891_svg__stop112" stop-color="#6978FF"/>
            <stop id="Chain1891_svg__stop114" offset="0.09" stop-color="#5F87FF"/>
            <stop id="Chain1891_svg__stop116" offset="0.28" stop-color="#4DA4FF"/>
            <stop id="Chain1891_svg__stop118" offset="0.46" stop-color="#40B9FF"/>
            <stop id="Chain1891_svg__stop120" offset="0.64" stop-color="#38C6FF"/>
            <stop id="Chain1891_svg__stop122" offset="0.81" stop-color="#36CBFF"/>
            <stop id="Chain1891_svg__stop124" offset="1" stop-color="#67FFFC"/>
        </linearGradient>
    </defs>
    <style id="style9" type="text/css">
        .Chain1891_svg__st0{fill:#FF0420}.Chain1891_svg__st1{fill:#FFFFFF}
    </style>
    <path id="Chain1891_svg__path22" fill="url(#Chain1891_svg__paint0_linear_479_2389)" d="m 206.71433,256.12448 c -6.85277,7.58673 -6.83874,20.03373 0.0431,27.65068 l 49.9683,55.31429 c 6.87974,7.61694 18.11142,7.63205 24.97714,0.0431 6.85275,-7.58563 6.83981,-20.03373 -0.0431,-27.64959 l -49.96832,-55.31533 c -6.87974,-7.61585 -18.11032,-7.63096 -24.97712,-0.0431 z" style="fill:url(#Chain1891_svg__paint0_linear_479_2389);stroke-width:10.7935"/>
    <path id="Chain1891_svg__path24" fill="url(#Chain1891_svg__paint1_linear_479_2389)" d="m 376.74145,233.89645 c 6.87975,-7.61588 6.89378,-20.06395 0.0431,-27.64959 -6.85276,-7.58673 -18.09739,-7.57161 -24.97821,0.0431 l -70.09161,77.59091 c -6.87976,7.61585 -5.64282,6.24617 -12.50854,13.84799 -15.52746,17.18858 -36.76575,14.50964 -43.64656,6.89379 0,0 31.16394,34.49803 31.17796,34.51315 6.85278,7.58564 18.09738,7.57052 24.97714,-0.0431 z" style="fill:url(#Chain1891_svg__paint1_linear_479_2389);stroke-width:10.7935"/>
    <path id="Chain1891_svg__path26" fill="url(#Chain1891_svg__paint2_linear_479_2389)" d="m 476.99754,206.65161 c -6.85278,-7.58564 -18.0974,-7.57053 -24.97714,0.0431 l -49.96829,55.31537 c -6.87975,7.61586 -6.89378,20.04884 -0.0431,27.64958 6.85275,7.58565 18.09738,7.57054 24.97713,-0.0431 l 49.9683,-55.31538 c 6.88081,-7.61586 6.89378,-20.04884 0.0431,-27.64958 z" style="fill:url(#Chain1891_svg__paint2_linear_479_2389);stroke-width:10.7935"/>
    <path id="Chain1891_svg__path28" fill="url(#Chain1891_svg__paint3_linear_479_2389)" d="m 282.02458,228.67025 c 6.85276,-7.58672 6.83873,-20.03373 -0.0433,-27.65067 l -49.96829,-55.3143 c -6.87974,-7.61694 -18.11141,-7.63204 -24.97712,-0.0431 -6.85384,7.58564 -6.83981,20.03373 0.0431,27.6496 l 49.96829,55.31537 c 6.88084,7.61586 18.11143,7.63096 24.97821,0.0431 z" style="fill:url(#Chain1891_svg__paint3_linear_479_2389);stroke-width:10.7935"/>
    <path id="Chain1891_svg__path30" fill="url(#Chain1891_svg__paint4_linear_479_2389)" d="m 111.9572,250.90153 c -6.88009,7.61587 -6.89368,20.06395 -0.0433,27.6496 6.85298,7.58671 18.09761,7.57159 24.97735,-0.0432 l 70.09162,-77.59091 c 6.87975,-7.61693 5.64282,-6.24724 12.50962,-13.84799 15.52746,-17.18859 36.76574,-14.50964 43.64548,-6.89379 0,0 -31.16394,-34.49803 -31.17796,-34.51314 -6.85278,-7.58672 -18.09739,-7.57161 -24.97714,0.0431 z" style="fill:url(#Chain1891_svg__paint4_linear_479_2389);stroke-width:10.7935"/>
    <path id="Chain1891_svg__path32" fill="url(#Chain1891_svg__paint5_linear_479_2389)" d="m 12.34397,278.3277 c 6.85287,7.58564 18.097493,7.57052 24.97745,-0.0431 l 49.968409,-55.31539 c 6.879957,-7.61585 6.893564,-20.06395 0.04311,-27.64958 -6.852869,-7.58564 -18.097379,-7.57162 -24.977464,0.0431 l -49.968395,55.3143 c -6.8799693,7.61694 -6.8935629,20.04883 -0.04311,27.65067 z" style="fill:url(#Chain1891_svg__paint5_linear_479_2389);stroke-width:10.7935"/>
</svg>
