<svg xmlns="http://www.w3.org/2000/svg" fill="none" viewBox="0 0 42 42">
    <rect width="42" height="42" fill="white" rx="21"/>
    <path fill="#D82292" d="M20.9918 4.55029L26.4416 12.4119L20.9918 14.4152L15.4371 12.4119L20.9918 4.55029Z"/>
    <path fill="#EF6FC4" d="M15.4372 23.4181H26.4417L26.4416 12.4136L20.9919 14.4115L15.4371 12.4136L15.4372 23.4181Z"/>
    <path fill="#FF8ABC" d="M26.4425 12.4136V23.4181L20.9927 21.4268V14.412L26.4425 12.4136Z"/>
    <path fill="#D82292" d="M20.9918 31.2752L15.4371 23.4161L20.9918 21.4248L26.4417 23.4161L20.9918 31.2752Z"/>
    <path fill="#E748B1" d="M22.8254 37.4499L23.8394 31.251L26.9733 31.5262L28.3895 34.4369L22.8254 37.4499Z"/>
    <path fill="#FF8ABC" d="M33.0174 27.8266L28.5177 24.645L23.8969 31.252L26.9724 31.5263L28.3887 34.4372L33.0174 27.8266Z"/>
    <path fill="#DA33A2" d="M23.8396 31.2512L28.4683 24.6406L29.919 27.3197L26.9735 31.5264L23.8396 31.2512Z"/>
    <path fill="#E748B1" d="M34.0056 21.5547L33.0176 27.8271L29.9181 27.32L28.4675 24.641L34.0056 21.5547Z"/>
    <path fill="#D82292" d="M19.174 37.4499L18.1599 31.251L15.0261 31.5262L13.6099 34.4369L19.174 37.4499Z"/>
    <path fill="#E748B1" d="M8.98193 27.8266L13.4817 24.645L18.1025 31.252L15.027 31.5263L13.6107 34.4372L8.98193 27.8266Z"/>
    <path fill="#DA33A2" d="M18.1611 31.2512L13.5324 24.6406L12.0817 27.3197L15.0272 31.5264L18.1611 31.2512Z"/>
    <path fill="#FF8ABC" d="M7.99426 21.5547L8.9823 27.8271L12.0818 27.32L13.5324 24.641L7.99426 21.5547Z"/>
</svg>
