<svg xmlns="http://www.w3.org/2000/svg" fill="none" viewBox="0 0 36 36">
    <rect width="35.9982" height="35.9982" fill="url(#rsweth_svg__paint0_linear_4101_219287)" rx="17.9991"/>
    <path fill="url(#rsweth_svg__paint1_linear_4101_219287)" stroke="#FFBA04" stroke-width="1.28565" d="M35.3554 17.9991C35.3554 27.5846 27.5846 35.3554 17.9991 35.3554C8.41362 35.3554 0.642825 27.5846 0.642825 17.9991C0.642825 8.41362 8.41362 0.642825 17.9991 0.642825C27.5846 0.642825 35.3554 8.41362 35.3554 17.9991Z"/>
    <path fill="#FFE8A8" d="M11.1423 17.8467L17.7711 6.94531V16.6514H17.1736V17.8467H11.1423Z"/>
    <path fill="#FFE8A8" d="M11.7786 20.5467L17.7716 28.8188V20.5254L11.7786 20.5467Z"/>
    <path fill="#FFBC03" d="M17.7923 6.85547L23.4653 16.6517H17.7498L17.7923 6.85547Z"/>
    <path fill="#FFBC03" d="M17.7715 20.5239V28.8603L24.7632 18.9746H18.2962V20.5239H17.7715Z"/>
    <defs>
        <linearGradient id="rsweth_svg__paint0_linear_4101_219287" x1="17.9991" x2="17.9991" y1="0" y2="35.9982" gradientUnits="userSpaceOnUse">
            <stop stop-color="#404141"/>
            <stop offset="1" stop-color="#222222"/>
        </linearGradient>
        <linearGradient id="rsweth_svg__paint1_linear_4101_219287" x1="18.1171" x2="17.9991" y1="13.1503" y2="35.9982" gradientUnits="userSpaceOnUse">
            <stop stop-color="#180C68"/>
            <stop offset="1" stop-color="#100842"/>
        </linearGradient>
    </defs>
</svg>
