<svg xmlns="http://www.w3.org/2000/svg" fill="none" viewBox="0 0 42 42">
    <g clip-path="url(#steth_svg__clip0_4532_196990)">
        <path fill="white" d="M21 41.9977C32.5967 41.9977 41.9977 32.5967 41.9977 20.9988C41.9977 9.40333 32.5967 0 21 0C9.40333 0 0 9.401 0 21C0 32.5967 9.401 41.9977 21 41.9977Z"/>
        <path fill="#00A3FF" d="M12.3863 19.5234L12.1506 19.8851C9.49879 23.9521 10.0915 29.2803 13.574 32.6928C15.557 34.6312 18.2221 35.713 20.9951 35.7051L12.3851 19.5234H12.3863Z"/>
        <path fill="#00A3FF" d="M21.0006 24.4421L12.3906 19.5246L21.0006 35.7051V24.4421ZM29.6211 19.5234L29.8568 19.8851C32.5075 23.9521 31.916 29.2803 28.4335 32.6928C26.4505 34.6312 23.7853 35.713 21.0123 35.7051L29.6223 19.5234H29.6211Z" opacity="0.6"/>
        <path fill="#00A3FF" d="M21.0023 24.4385L29.6112 19.521L21 35.7015V24.4385H21.0023ZM21.0047 13.4531V21.9348L28.42 17.6963L21.0047 13.4531Z" opacity="0.2"/>
        <path fill="#00A3FF" d="M21.0384 13.4531L13.6172 17.6963L21.036 21.9348V13.4531H21.0384Z" opacity="0.6"/>
        <path fill="#00A3FF" d="M21.0384 6.3125L13.6172 17.6922L21.036 13.4362V6.3125H21.0384Z"/>
        <path fill="#00A3FF" d="M21 13.442L28.4212 17.698L21 6.3125V13.442Z" opacity="0.6"/>
    </g>
    <defs>
        <clipPath id="steth_svg__clip0_4532_196990">
            <rect width="42" height="42" fill="white"/>
        </clipPath>
    </defs>
</svg>
